<?xml version="1.0" encoding="UTF-8"?>
<svg width="128" height="128" viewBox="0 0 128 128" fill="none" xmlns="http://www.w3.org/2000/svg" role="img" aria-labelledby="title desc">
  <title id="title">OrganizeKids logo</title>
  <desc id="desc">Rounded gradient square with a calendar and a playful star and checkmark inside, representing family organization and achievements.</desc>
  <defs>
    <linearGradient id="grad-bg" x1="0" y1="0" x2="128" y2="128" gradientUnits="userSpaceOnUse">
      <stop offset="0%" stop-color="#7C3AED"/>
      <stop offset="50%" stop-color="#D946EF"/>
      <stop offset="100%" stop-color="#EC4899"/>
    </linearGradient>
    <linearGradient id="shine" x1="20" y1="20" x2="108" y2="108" gradientUnits="userSpaceOnUse">
      <stop offset="0" stop-color="#FFFFFF" stop-opacity="0.35"/>
      <stop offset="0.4" stop-color="#FFFFFF" stop-opacity="0.12"/>
      <stop offset="1" stop-color="#FFFFFF" stop-opacity="0"/>
    </linearGradient>
    <filter id="softShadow" x="-20%" y="-20%" width="140%" height="140%" color-interpolation-filters="sRGB">
      <feDropShadow dx="0" dy="4" stdDeviation="6" flood-color="#000000" flood-opacity="0.25"/>
    </filter>
  </defs>

  <!-- Background -->
  <rect x="6" y="6" width="116" height="116" rx="28" fill="url(#grad-bg)" filter="url(#softShadow)"/>
  <!-- Subtle shine overlay -->
  <rect x="6" y="6" width="116" height="116" rx="28" fill="url(#shine)"/>

  <!-- Calendar shape -->
  <g transform="translate(0,2)">
    <rect x="28" y="36" width="72" height="58" rx="10" fill="none" stroke="#FFFFFF" stroke-width="6"/>
    <line x1="28" y1="52" x2="100" y2="52" stroke="#FFFFFF" stroke-width="6" stroke-linecap="round"/>
    <!-- Binder rings -->
    <rect x="40" y="24" width="8" height="16" rx="2" fill="#FFFFFF"/>
    <rect x="80" y="24" width="8" height="16" rx="2" fill="#FFFFFF"/>
  </g>

  <!-- Playful star -->
  <polygon points="88,68 92,78 103,79 95,86 97,97 88,91 79,97 81,86 73,79 84,78" fill="#FFD99E" stroke="#FFD084" stroke-width="2"/>

  <!-- Checkmark -->
  <path d="M44 78 L58 90 L76 65" fill="none" stroke="#FFFFFF" stroke-width="8" stroke-linecap="round" stroke-linejoin="round"/>
</svg>
